# xmcd
#
# Track frame offsets: 
#        150
#        10233
#        25944
#        40020
#        61831
#        78758
#        101870
#        116500
#        134393
#        146732
#        169907
#        185169
#
# Disc length: 2521 seconds
#
# Revision: 0
# Processed by: cddbd v1.5.2PL0 Copyright (c) Steve Scherf et al.
# Submitted via: ExactAudioCopy v0.95b4
#
DISCID=a009d70c
DTITLE=Ernie Haase and Signature Sound - Ernie Haase and Signature Sound
DYEAR=2005
DGENRE=Gospel
TTITLE0=Shout, Brother, Shout
TTITLE1=Trying To Get A Glimpse
TTITLE2=Godspeed
TTITLE3=Then Came The Morning
TTITLE4=Do You Want To Be Forgiven
TTITLE5=This Old Place
TTITLE6=If This Is What God Wants
TTITLE7=Pray For Me
TTITLE8=Goodbye Egypt (Hello Canaan Land)
TTITLE9=Forgiven Again
TTITLE10=Godspeed (Reprise)
TTITLE11=Enhanced Media
EXTD=
EXTT0=
EXTT1=
EXTT2=
EXTT3=
EXTT4=
EXTT5=
EXTT6=
EXTT7=
EXTT8=
EXTT9=
EXTT10=
EXTT11=
PLAYORDER=
